<svg id="mongodb" xmlns="http://www.w3.org/2000/svg" viewBox="0 0 361 128"><defs><style>.cls-1{fill:#4faa41;fill-rule:evenodd;}</style></defs><g id="plain-wordmark"><path class="cls-1" d="M297.1,61.33a17.36,17.36,0,0,0-7.89-7.75A22,22,0,0,0,280,51.42c-2.41-.07-4.83.06-7.24.09-2.15,0-4.29.06-6.44,0-2.52,0-5-.1-7.56-.17a.81.81,0,0,0-.91.49c-.31.66-.67,1.3-1.05,2,.23.08.33.12.42.14,1.25.22,2.51.41,3.76.66a2.6,2.6,0,0,1,2.39,2.58c.11,1.93.15,3.85.15,5.78q0,11.43-.15,22.85a5.42,5.42,0,0,1-.15,1.51,2.82,2.82,0,0,1-.73,1.52,6.37,6.37,0,0,1-2.42.92c-1.22.2-1.42.25-1.8,1.45-.06.2-.11.4-.17.6-.18.65-.08.78.6.79,3.91,0,7.81.12,11.72.11,3.56,0,7.13.2,10.67-.46a25.47,25.47,0,0,0,9.35-3.61,18.65,18.65,0,0,0,7.78-9.92,24.41,24.41,0,0,0,1-10.5A19.11,19.11,0,0,0,297.1,61.33Zm-6.84,20.94c-2.09,3.89-5.21,6.49-9.67,7.18a15.64,15.64,0,0,1-8.24-.75A3.88,3.88,0,0,1,270,84.85c-.05-1.68-.07-3.37-.07-5q0-8.89,0-17.79c0-1.87,0-3.74.07-5.61,0-1.31.3-1.75,1.58-1.86,5.63-.47,11,.14,15.46,4.1a15.56,15.56,0,0,1,5,9.16c.27,1.5.35,3,.52,4.55A22.32,22.32,0,0,1,290.26,82.27Z"/><path class="cls-1" d="M337.51,75.85a10.08,10.08,0,0,0-5.86-5.48c-.9-.37-1.83-.68-2.81-1l.34-.22a21.11,21.11,0,0,0,3.13-2.05A8.16,8.16,0,0,0,335,59.5a8.06,8.06,0,0,0-4.39-6.34,15.41,15.41,0,0,0-7.41-1.69c-4.49,0-9,.07-13.45.08-1.54,0-3.08-.11-4.63-.13-.3,0-.74.07-.87.27a10.65,10.65,0,0,0-.84,1.77c-.15.35,0,.54.4.59,1.08.15,2.15.34,3.23.49a2.4,2.4,0,0,1,2.31,2.51c0,.29,0,.59,0,.89,0,4.67,0,9.34,0,14s-.08,9.33-.14,14a11.65,11.65,0,0,1-.17,1.76,1.82,1.82,0,0,1-1.5,1.68c-.85.18-1.7.33-2.55.5-.3.06-.74.06-.86.24a3.87,3.87,0,0,0-.8,2.39,1.32,1.32,0,0,0,.27.07c2.85.07,5.71.15,8.57.21h1.72c3,0,5.94,0,8.9-.13a19.52,19.52,0,0,0,9-2.75c3-1.74,5.24-4.05,6.06-7.51A10.63,10.63,0,0,0,337.51,75.85ZM315.73,55.94c0-.93.43-1.34,1.36-1.37a18.17,18.17,0,0,1,6.79.75,6.67,6.67,0,0,1,4.6,6.51,9.75,9.75,0,0,1-.43,3.43,5.27,5.27,0,0,1-4.75,3.57c-1.2.13-2.41.14-3.47.2-1.29-.06-2.42-.12-3.56-.16-.48,0-.68-.23-.68-.71Q315.66,62.06,315.73,55.94Zm14.76,29.27a7.45,7.45,0,0,1-5.86,4.26,14.76,14.76,0,0,1-6.27-.28,3.49,3.49,0,0,1-2.46-3,15.24,15.24,0,0,1-.19-2.95c0-1.47,0-4.51,0-4.51h0c0-2.17,0-4,0-6.13,0-.44.07-.67.62-.65,1.95.06,3.9.09,5.85.17a11,11,0,0,1,4.9,1.41,7.54,7.54,0,0,1,4.13,5.82A10.24,10.24,0,0,1,330.49,85.21Z"/><path class="cls-1" d="M116.71,87.54c0-3.93,0-7.85,0-11.79a15.51,15.51,0,0,0-.8-5.19,7.94,7.94,0,0,0-10.63-5.08,23.73,23.73,0,0,0-5.76,3.2c-1,.76-1,.76-1.79-.32a7.26,7.26,0,0,0-8.74-3,20.71,20.71,0,0,0-6.21,3.42c-.18.14-.54.29-.64.21a.94.94,0,0,1-.3-.69c0-.69.12-1.39.13-2.09a12.51,12.51,0,0,0-.11-1.34c-.86.29-1.55.59-2.27.76-2.22.55-4.45,1-6.68,1.55-.54.13-1.11.29-1.16.91s.53.71,1,.89c1,.39,1.91.8,2.86,1.22a1.78,1.78,0,0,1,1.08,1.84c0,3.65,0,7.3,0,11,0,1.49-.08,3-.14,4.46a2,2,0,0,1-1.79,2.19c-.68.18-1.36.3-2,.46-.15,0-.4.13-.4.2a8.86,8.86,0,0,0,0,1.93c0,.12.71.12,1.08.16a2.28,2.28,0,0,0,.26,0c2.63,0,5.25-.08,7.88-.1,1.4,0,2.79,0,4.31,0,0-.62.1-1.35.16-2.1-.87-.16-1.64-.28-2.41-.44a1.92,1.92,0,0,1-1.73-2.09c0-.58,0-1.15,0-1.72,0-4.46,0-8.92,0-13.38A1.76,1.76,0,0,1,82.71,71a12.33,12.33,0,0,1,3.9-1.83c3-.76,5.55.3,6.7,2.83A8.17,8.17,0,0,1,94,74.55,89.59,89.59,0,0,1,94,88a1.66,1.66,0,0,1-1.46,1.69c-.74.18-1.5.29-2.24.47-.18,0-.44-.07-.45.08-.05.61,0,1.56,0,1.56h.54c2.27,0,4.54.23,6.81.22,1.87,0,3.74.22,5.6.27.34,0,.63.06.65-.33,0-.61,0-1.18,0-1.8,0,0-.23,0-.36-.06l-1.92-.43c-1.29-.3-1.74-.8-1.74-2.11,0-3.23,0-6.45,0-9.68,0-1.84-.09-3.69-.21-5.53a1.07,1.07,0,0,1,.44-1.09,11.53,11.53,0,0,1,3.75-1.81c4.2-1.1,7.63,1.19,7.85,5.52.21,4.17.13,8.36.09,12.54,0,1.46-.49,1.9-1.92,2.29l-.49.12c-1.47.35-1.46.35-1.37,1.91,0,.49.16.62.68.6,3-.06,6-.08,9-.11,1.23,0,2.45,0,3.78,0,.08-.64.18-1.36.27-2-1.17-.31-2.25-.54-3.29-.88A1.65,1.65,0,0,1,116.71,87.54Z"/><path class="cls-1" d="M219.68,69.67c1.24-1.14,1.24-2.65.9-4.33a4.81,4.81,0,0,1-3.32,1.58,10.26,10.26,0,0,1-4.87-.69,14.44,14.44,0,0,0-12.49.3c-3.47,1.67-5.61,4.27-5.83,8.2a9.56,9.56,0,0,0,2,6.92,8.73,8.73,0,0,0,3.77,2.52c.62.23.67.53.15.93s-.8.56-1.21.82l-2.66,1.64a1,1,0,0,0-.53,1.33A5.69,5.69,0,0,0,199,92.53a3.81,3.81,0,0,1,.58.41,6.14,6.14,0,0,1-.51.51c-1.58,1.28-3.23,2.49-4.74,3.85a4.29,4.29,0,0,0-1.29,4.37,8.41,8.41,0,0,0,6.18,6.41,17.29,17.29,0,0,0,15.5-2.57,12.06,12.06,0,0,0,5.44-8,6.61,6.61,0,0,0-5.39-8c-2.58-.47-5.22-.61-7.83-.91a31.24,31.24,0,0,1-3.64-.5,1.73,1.73,0,0,1-1.42-1.86,2,2,0,0,1,1.89-1.6,16.6,16.6,0,0,0,5.61-1.27c4.73-2.16,6.92-6,6.37-11-.07-.68-.23-1.36-.37-2.16C216.91,70.43,218.46,70.81,219.68,69.67ZM205.35,93.56a24.76,24.76,0,0,1,6.22.8c1.86.54,3.39,1.49,3.84,3.56a5.8,5.8,0,0,1-3.09,6.34,11.92,11.92,0,0,1-7.24,1.1,8.78,8.78,0,0,1-5.61-2.54,4.83,4.83,0,0,1,0-7C201.28,93.92,202.25,93.53,205.35,93.56Zm4.81-15.09c-1.12,3.58-4.37,4.07-6.93,2.92-2.17-1-3.12-2.89-3.62-5.07-.19-.84-.24-1.72-.35-2.58a8.9,8.9,0,0,1,.78-3.53c1.63-3.42,5.63-3.21,7.85-1.66a5.53,5.53,0,0,1,2,2.63A10.86,10.86,0,0,1,210.16,78.47Z"/><path class="cls-1" d="M189.84,89.88a16.44,16.44,0,0,1-2.29-.51c-1.32-.41-1.48-.65-1.49-2.05,0-3.88-.07-7.77-.11-11.65a17.33,17.33,0,0,0-.77-5.15,8,8,0,0,0-10-5.46,18.4,18.4,0,0,0-6.37,3.64c-.18.15-.38.29-.7.53,0-.35,0-.53,0-.71,0-.83.13-1.65.12-2.48a6.15,6.15,0,0,0-.25-1.25c-1.63.5-3.09,1-4.59,1.37s-3,.63-4.54.94c-.75.15-1.3.61-1.29,1.12,0,.73.62.88,1.15,1.09,1,.39,1.92.79,2.87,1.21a1.56,1.56,0,0,1,.94,1.59c-.05,5-.08,10.1-.15,15.16,0,1.59-.43,2-2,2.36l-.68.14c-1.46.25-1.5.31-1.4,1.84a2.26,2.26,0,0,1,0,.26c0,.59.24.78.85.77,3.86,0,7.72-.07,11.58,0,1.65,0,1.83-.13,1.8-1.83,0-.25-.05-.5-.08-.73-.94-.15-1.85-.27-2.73-.46A1.46,1.46,0,0,1,168.34,88c-.08-.86-.1-1.74-.11-2.6q-.06-6-.1-11.91a2.82,2.82,0,0,1,1.1-2.57,9,9,0,0,1,4.61-1.66c3.44-.23,6.06,1.81,6.24,5.24.23,4.24.16,8.49.22,12.73a7.46,7.46,0,0,1-.1,1,1.34,1.34,0,0,1-1,1.25c-.62.16-1.24.3-1.87.4-.93.14-.95.13-1,1.07a3.43,3.43,0,0,0,0,.64c.11,1.09.12,1.06,1.23,1,3.73,0,7.46,0,11.19,0,1.57,0,1.68-.07,1.69-1.68,0-.13,0-.26,0-.38C190.45,90.11,190.27,89.94,189.84,89.88Z"/><path class="cls-1" d="M242,65.33a15.61,15.61,0,0,0-11.16,1.57,12.13,12.13,0,0,0-6.58,8.3,16.57,16.57,0,0,0,1.23,11.1,11,11,0,0,0,5.09,5.24,15,15,0,0,0,16.21-2.15c3.34-2.86,4.57-6.67,4.64-11.39-.05-.48-.09-1.39-.22-2.29A12.19,12.19,0,0,0,242,65.33Zm3,19.85c-1,4.09-4.58,5.9-8.57,4.5a8.33,8.33,0,0,1-4.58-3.93,17,17,0,0,1-1.46-13.41,6,6,0,0,1,6.45-4.56,8.06,8.06,0,0,1,6.31,3.68,14.84,14.84,0,0,1,2.39,7.73c0,.45,0,.89,0,1.34l.19,0C245.46,82.09,245.34,83.67,245,85.18Z"/><path class="cls-1" d="M143.56,65.26A15.49,15.49,0,0,0,132,67.34a11.92,11.92,0,0,0-5.85,8,17,17,0,0,0,.74,9.7A11.48,11.48,0,0,0,130.27,90a13.17,13.17,0,0,0,11.36,2.71,13.94,13.94,0,0,0,8.82-5.13,15.22,15.22,0,0,0,3-9.24,31.43,31.43,0,0,0-.38-3.22C151.91,69.92,148.85,66.47,143.56,65.26Zm3.36,19.9c-1,4.07-4.6,5.93-8.56,4.53a9,9,0,0,1-5.25-5.16,17.53,17.53,0,0,1-.93-11.87,6.18,6.18,0,0,1,7.18-4.82,8,8,0,0,1,5.56,3.45,15.09,15.09,0,0,1,2.55,8.65v.63l.16,0C147.4,82.12,147.28,83.67,146.92,85.16Z"/><path class="cls-1" d="M63,47.43A55,55,0,0,0,50.36,26,23.51,23.51,0,0,1,46.18,21c-.66-1.23-1.29-2.47-1.92-3.71l-.41-1a1.75,1.75,0,0,0-.11.4c-.06,2-1.2,3.39-2.62,4.67-1.61,1.43-3.1,3-4.64,4.5L31.74,32.1q-1.9,3.52-3.83,7c-.85,2.3-1.7,4.61-2.56,6.91,0,0-.06.07-.07.11a64,64,0,0,0-2.45,14.19A43.32,43.32,0,0,0,23,65.82a38.3,38.3,0,0,0,1.27,7.66A49.07,49.07,0,0,0,38.49,96.61c1.26,1.19,2.63,2.28,3.95,3.41.2.67.39,1.34.59,2l.54,3.12c.09,1.08.17,2.17.26,3.25,0,.66,0,1.32,0,2,0,.17.23.33.36.49l1.1.39,1.15.44c-.08-1.08-.14-2-.2-2.89s0-1.89,0-2.84c.13-1.45.27-2.9.4-4.34l.29-.95.82-1.46c1-.82,2.11-1.56,3-2.47,1.68-1.65,3.35-3.32,4.85-5.12a38.54,38.54,0,0,0,5-7.64,57.17,57.17,0,0,0,2.45-5.62c.62-1.68,1-3.46,1.49-5.2a2.29,2.29,0,0,0,.12-.37,49,49,0,0,0,.81-14.19A44.63,44.63,0,0,0,63,47.43ZM43.12,97.7h0c.16-.77.35-1.54.49-2.31C43.47,96.16,43.28,96.93,43.12,97.7Zm3.42.53-.65-1.41.65,1.41,1,.81Z"/></g></svg>